# Blender v2.92.0 OBJ File: ''
# www.blender.org
mtllib pockey_stick.mtl
o Cylinder.001_Cylinder.058
v 2.836549 -0.290388 -0.713770
v 2.590864 -0.671830 -0.808800
v 2.840529 -0.293454 -0.711756
v 2.594844 -0.674896 -0.806786
v 2.843945 -0.296423 -0.708667
v 2.598260 -0.677865 -0.803698
v 2.846665 -0.299183 -0.704624
v 2.600980 -0.680625 -0.799654
v 2.848585 -0.301626 -0.699780
v 2.602900 -0.683068 -0.794811
v 2.849631 -0.303659 -0.694323
v 2.603946 -0.685101 -0.789353
v 2.849762 -0.305204 -0.688462
v 2.604077 -0.686646 -0.783492
v 2.848974 -0.306201 -0.682422
v 2.603289 -0.687643 -0.777452
v 2.847297 -0.306612 -0.676435
v 2.601612 -0.688054 -0.771465
v 2.844796 -0.306422 -0.670731
v 2.599111 -0.687864 -0.765761
v 2.841565 -0.305637 -0.665530
v 2.595881 -0.687079 -0.760561
v 2.837731 -0.304288 -0.661032
v 2.592046 -0.685730 -0.756062
v 2.833440 -0.302427 -0.657409
v 2.587755 -0.683869 -0.752439
v 2.828856 -0.300124 -0.654800
v 2.583171 -0.681566 -0.749830
v 2.824157 -0.297470 -0.653306
v 2.578472 -0.678912 -0.748336
v 2.819522 -0.294565 -0.652985
v 2.573837 -0.676007 -0.748015
v 2.815130 -0.291521 -0.653848
v 2.569445 -0.672963 -0.748878
v 2.811149 -0.288455 -0.655862
v 2.565464 -0.669897 -0.750892
v 2.807733 -0.285486 -0.658950
v 2.562048 -0.666928 -0.753980
v 2.805013 -0.282726 -0.662994
v 2.559328 -0.664168 -0.758024
v 2.803093 -0.280283 -0.667837
v 2.557408 -0.661725 -0.762867
v 2.802047 -0.278250 -0.673295
v 2.556363 -0.659692 -0.768325
v 2.801916 -0.276705 -0.679156
v 2.556231 -0.658147 -0.774186
v 2.802704 -0.275708 -0.685196
v 2.557019 -0.657150 -0.780226
v 2.804381 -0.275296 -0.691183
v 2.558696 -0.656738 -0.786213
v 2.806883 -0.275487 -0.696886
v 2.561198 -0.656929 -0.791916
v 2.810113 -0.276271 -0.702087
v 2.564428 -0.657713 -0.797117
v 2.813947 -0.277620 -0.706586
v 2.568263 -0.659062 -0.801616
v 2.818239 -0.279482 -0.710209
v 2.572554 -0.660924 -0.805239
v 2.822822 -0.281784 -0.712817
v 2.577137 -0.663226 -0.807848
v 2.827522 -0.284439 -0.714311
v 2.581837 -0.665881 -0.809341
v 2.832157 -0.287344 -0.714633
v 2.586472 -0.668786 -0.809663
vt 1.000000 0.500000
vt 0.968750 0.500000
vt 0.968750 1.000000
vt 1.000000 1.000000
vt 0.937500 0.500000
vt 0.937500 1.000000
vt 0.906250 0.500000
vt 0.906250 1.000000
vt 0.875000 0.500000
vt 0.875000 1.000000
vt 0.843750 0.500000
vt 0.843750 1.000000
vt 0.812500 0.500000
vt 0.812500 1.000000
vt 0.781250 0.500000
vt 0.781250 1.000000
vt 0.750000 0.500000
vt 0.750000 1.000000
vt 0.718750 0.500000
vt 0.718750 1.000000
vt 0.687500 0.500000
vt 0.687500 1.000000
vt 0.656250 0.500000
vt 0.656250 1.000000
vt 0.625000 0.500000
vt 0.625000 1.000000
vt 0.593750 0.500000
vt 0.593750 1.000000
vt 0.562500 0.500000
vt 0.562500 1.000000
vt 0.531250 0.500000
vt 0.531250 1.000000
vt 0.500000 0.500000
vt 0.500000 1.000000
vt 0.468750 0.500000
vt 0.468750 1.000000
vt 0.437500 0.500000
vt 0.437500 1.000000
vt 0.406250 0.500000
vt 0.406250 1.000000
vt 0.375000 0.500000
vt 0.375000 1.000000
vt 0.343750 0.500000
vt 0.343750 1.000000
vt 0.312500 0.500000
vt 0.312500 1.000000
vt 0.281250 0.500000
vt 0.281250 1.000000
vt 0.250000 0.500000
vt 0.250000 1.000000
vt 0.218750 0.500000
vt 0.218750 1.000000
vt 0.187500 0.500000
vt 0.187500 1.000000
vt 0.156250 0.500000
vt 0.156250 1.000000
vt 0.125000 0.500000
vt 0.125000 1.000000
vt 0.093750 0.500000
vt 0.093750 1.000000
vt 0.062500 0.500000
vt 0.062500 1.000000
vt 0.296822 0.485388
vt 0.341844 0.471731
vt 0.383337 0.449553
vt 0.419706 0.419706
vt 0.449553 0.383337
vt 0.471731 0.341844
vt 0.485388 0.296822
vt 0.490000 0.250000
vt 0.485388 0.203178
vt 0.471731 0.158156
vt 0.449553 0.116663
vt 0.419706 0.080294
vt 0.383337 0.050447
vt 0.341844 0.028269
vt 0.296822 0.014612
vt 0.250000 0.010000
vt 0.203178 0.014612
vt 0.158156 0.028269
vt 0.116663 0.050447
vt 0.080294 0.080294
vt 0.050447 0.116663
vt 0.028269 0.158156
vt 0.014611 0.203179
vt 0.010000 0.250000
vt 0.014612 0.296822
vt 0.028269 0.341844
vt 0.050447 0.383337
vt 0.080295 0.419706
vt 0.116663 0.449553
vt 0.158156 0.471731
vt 0.203179 0.485389
vt 0.250000 0.490000
vt 0.031250 0.500000
vt 0.031250 1.000000
vt 0.000000 0.500000
vt 0.000000 1.000000
vt 0.750000 0.490000
vt 0.703179 0.485389
vt 0.658156 0.471731
vt 0.616663 0.449553
vt 0.580295 0.419706
vt 0.550447 0.383337
vt 0.528269 0.341844
vt 0.514612 0.296822
vt 0.510000 0.250000
vt 0.514611 0.203179
vt 0.528269 0.158156
vt 0.550447 0.116663
vt 0.580294 0.080294
vt 0.616663 0.050447
vt 0.658156 0.028269
vt 0.703178 0.014612
vt 0.750000 0.010000
vt 0.796822 0.014612
vt 0.841844 0.028269
vt 0.883337 0.050447
vt 0.919706 0.080294
vt 0.949553 0.116663
vt 0.971731 0.158156
vt 0.985388 0.203178
vt 0.990000 0.250000
vt 0.985388 0.296822
vt 0.971731 0.341844
vt 0.949553 0.383337
vt 0.919706 0.419706
vt 0.883337 0.449553
vt 0.841844 0.471731
vt 0.796822 0.485388
vn 0.4223 -0.0465 -0.9053
vn 0.5749 -0.1709 -0.8002
vn 0.6951 -0.2831 -0.6608
vn 0.7796 -0.3777 -0.4996
vn 0.8294 -0.4526 -0.3275
vn 0.8477 -0.5079 -0.1529
vn 0.8383 -0.5448 0.0194
vn 0.8042 -0.5644 0.1865
vn 0.7469 -0.5674 0.3466
vn 0.6673 -0.5539 0.4980
vn 0.5649 -0.5229 0.6383
vn 0.4394 -0.4732 0.7635
vn 0.2910 -0.4035 0.8675
vn 0.1223 -0.3134 0.9417
vn -0.0604 -0.2045 0.9770
vn -0.2464 -0.0818 0.9657
vn -0.4223 0.0465 0.9053
vn -0.5749 0.1709 0.8002
vn -0.6951 0.2831 0.6608
vn -0.7796 0.3777 0.4996
vn -0.8294 0.4526 0.3275
vn -0.8477 0.5079 0.1529
vn -0.8383 0.5448 -0.0194
vn -0.8042 0.5644 -0.1865
vn -0.7469 0.5674 -0.3466
vn -0.6673 0.5539 -0.4980
vn -0.5649 0.5229 -0.6383
vn -0.4394 0.4732 -0.7635
vn -0.2910 0.4035 -0.8675
vn -0.1223 0.3134 -0.9417
vn -0.5300 -0.8229 -0.2050
vn 0.0604 0.2045 -0.9770
vn 0.2464 0.0818 -0.9657
vn 0.5300 0.8228 0.2050
usemtl None
s off
f 1/1/1 3/2/1 4/3/1 2/4/1
f 3/2/2 5/5/2 6/6/2 4/3/2
f 5/5/3 7/7/3 8/8/3 6/6/3
f 7/7/4 9/9/4 10/10/4 8/8/4
f 9/9/5 11/11/5 12/12/5 10/10/5
f 11/11/6 13/13/6 14/14/6 12/12/6
f 13/13/7 15/15/7 16/16/7 14/14/7
f 15/15/8 17/17/8 18/18/8 16/16/8
f 17/17/9 19/19/9 20/20/9 18/18/9
f 19/19/10 21/21/10 22/22/10 20/20/10
f 21/21/11 23/23/11 24/24/11 22/22/11
f 23/23/12 25/25/12 26/26/12 24/24/12
f 25/25/13 27/27/13 28/28/13 26/26/13
f 27/27/14 29/29/14 30/30/14 28/28/14
f 29/29/15 31/31/15 32/32/15 30/30/15
f 31/31/16 33/33/16 34/34/16 32/32/16
f 33/33/17 35/35/17 36/36/17 34/34/17
f 35/35/18 37/37/18 38/38/18 36/36/18
f 37/37/19 39/39/19 40/40/19 38/38/19
f 39/39/20 41/41/20 42/42/20 40/40/20
f 41/41/21 43/43/21 44/44/21 42/42/21
f 43/43/22 45/45/22 46/46/22 44/44/22
f 45/45/23 47/47/23 48/48/23 46/46/23
f 47/47/24 49/49/24 50/50/24 48/48/24
f 49/49/25 51/51/25 52/52/25 50/50/25
f 51/51/26 53/53/26 54/54/26 52/52/26
f 53/53/27 55/55/27 56/56/27 54/54/27
f 55/55/28 57/57/28 58/58/28 56/56/28
f 57/57/29 59/59/29 60/60/29 58/58/29
f 59/59/30 61/61/30 62/62/30 60/60/30
f 4/63/31 6/64/31 8/65/31 10/66/31 12/67/31 14/68/31 16/69/31 18/70/31 20/71/31 22/72/31 24/73/31 26/74/31 28/75/31 30/76/31 32/77/31 34/78/31 36/79/31 38/80/31 40/81/31 42/82/31 44/83/31 46/84/31 48/85/31 50/86/31 52/87/31 54/88/31 56/89/31 58/90/31 60/91/31 62/92/31 64/93/31 2/94/31
f 61/61/32 63/95/32 64/96/32 62/62/32
f 63/95/33 1/97/33 2/98/33 64/96/33
f 1/99/34 63/100/34 61/101/34 59/102/34 57/103/34 55/104/34 53/105/34 51/106/34 49/107/34 47/108/34 45/109/34 43/110/34 41/111/34 39/112/34 37/113/34 35/114/34 33/115/34 31/116/34 29/117/34 27/118/34 25/119/34 23/120/34 21/121/34 19/122/34 17/123/34 15/124/34 13/125/34 11/126/34 9/127/34 7/128/34 5/129/34 3/130/34
o Cylinder.002_Cylinder.001
v 2.836549 -0.290388 -0.713770
v 2.590864 -0.671830 -0.808800
v 2.840529 -0.293454 -0.711756
v 2.594844 -0.674896 -0.806786
v 2.843945 -0.296423 -0.708667
v 2.598260 -0.677865 -0.803698
v 2.846665 -0.299183 -0.704624
v 2.600980 -0.680625 -0.799654
v 2.848585 -0.301626 -0.699780
v 2.602900 -0.683068 -0.794811
v 2.849631 -0.303659 -0.694323
v 2.603946 -0.685101 -0.789353
v 2.849762 -0.305204 -0.688462
v 2.604077 -0.686646 -0.783492
v 2.848974 -0.306201 -0.682422
v 2.603289 -0.687643 -0.777452
v 2.847297 -0.306612 -0.676435
v 2.601612 -0.688054 -0.771465
v 2.844796 -0.306422 -0.670731
v 2.599111 -0.687864 -0.765761
v 2.841565 -0.305637 -0.665530
v 2.595881 -0.687079 -0.760561
v 2.837731 -0.304288 -0.661032
v 2.592046 -0.685730 -0.756062
v 2.833440 -0.302427 -0.657409
v 2.587755 -0.683869 -0.752439
v 2.828856 -0.300124 -0.654800
v 2.583171 -0.681566 -0.749830
v 2.824157 -0.297470 -0.653306
v 2.578472 -0.678912 -0.748336
v 2.819522 -0.294565 -0.652985
v 2.573837 -0.676007 -0.748015
v 2.815130 -0.291521 -0.653848
v 2.569445 -0.672963 -0.748878
v 2.811149 -0.288455 -0.655862
v 2.565464 -0.669897 -0.750892
v 2.807733 -0.285486 -0.658950
v 2.562048 -0.666928 -0.753980
v 2.805013 -0.282726 -0.662994
v 2.559328 -0.664168 -0.758024
v 2.803093 -0.280283 -0.667837
v 2.557408 -0.661725 -0.762867
v 2.802047 -0.278250 -0.673295
v 2.556363 -0.659692 -0.768325
v 2.801916 -0.276705 -0.679156
v 2.556231 -0.658147 -0.774186
v 2.802704 -0.275708 -0.685196
v 2.557019 -0.657150 -0.780226
v 2.804381 -0.275296 -0.691183
v 2.558696 -0.656738 -0.786213
v 2.806883 -0.275487 -0.696886
v 2.561198 -0.656929 -0.791916
v 2.810113 -0.276271 -0.702087
v 2.564428 -0.657713 -0.797117
v 2.813947 -0.277620 -0.706586
v 2.568263 -0.659062 -0.801616
v 2.818239 -0.279482 -0.710209
v 2.572554 -0.660924 -0.805239
v 2.822822 -0.281784 -0.712817
v 2.577137 -0.663226 -0.807848
v 2.827522 -0.284439 -0.714311
v 2.581837 -0.665881 -0.809341
v 2.832157 -0.287344 -0.714633
v 2.586472 -0.668786 -0.809663
vt 1.000000 0.500000
vt 0.968750 0.500000
vt 0.968750 1.000000
vt 1.000000 1.000000
vt 0.937500 0.500000
vt 0.937500 1.000000
vt 0.906250 0.500000
vt 0.906250 1.000000
vt 0.875000 0.500000
vt 0.875000 1.000000
vt 0.843750 0.500000
vt 0.843750 1.000000
vt 0.812500 0.500000
vt 0.812500 1.000000
vt 0.781250 0.500000
vt 0.781250 1.000000
vt 0.750000 0.500000
vt 0.750000 1.000000
vt 0.718750 0.500000
vt 0.718750 1.000000
vt 0.687500 0.500000
vt 0.687500 1.000000
vt 0.656250 0.500000
vt 0.656250 1.000000
vt 0.625000 0.500000
vt 0.625000 1.000000
vt 0.593750 0.500000
vt 0.593750 1.000000
vt 0.562500 0.500000
vt 0.562500 1.000000
vt 0.531250 0.500000
vt 0.531250 1.000000
vt 0.500000 0.500000
vt 0.500000 1.000000
vt 0.468750 0.500000
vt 0.468750 1.000000
vt 0.437500 0.500000
vt 0.437500 1.000000
vt 0.406250 0.500000
vt 0.406250 1.000000
vt 0.375000 0.500000
vt 0.375000 1.000000
vt 0.343750 0.500000
vt 0.343750 1.000000
vt 0.312500 0.500000
vt 0.312500 1.000000
vt 0.281250 0.500000
vt 0.281250 1.000000
vt 0.250000 0.500000
vt 0.250000 1.000000
vt 0.218750 0.500000
vt 0.218750 1.000000
vt 0.187500 0.500000
vt 0.187500 1.000000
vt 0.156250 0.500000
vt 0.156250 1.000000
vt 0.125000 0.500000
vt 0.125000 1.000000
vt 0.093750 0.500000
vt 0.093750 1.000000
vt 0.062500 0.500000
vt 0.062500 1.000000
vt 0.296822 0.485388
vt 0.341844 0.471731
vt 0.383337 0.449553
vt 0.419706 0.419706
vt 0.449553 0.383337
vt 0.471731 0.341844
vt 0.485388 0.296822
vt 0.490000 0.250000
vt 0.485388 0.203178
vt 0.471731 0.158156
vt 0.449553 0.116663
vt 0.419706 0.080294
vt 0.383337 0.050447
vt 0.341844 0.028269
vt 0.296822 0.014612
vt 0.250000 0.010000
vt 0.203178 0.014612
vt 0.158156 0.028269
vt 0.116663 0.050447
vt 0.080294 0.080294
vt 0.050447 0.116663
vt 0.028269 0.158156
vt 0.014611 0.203179
vt 0.010000 0.250000
vt 0.014612 0.296822
vt 0.028269 0.341844
vt 0.050447 0.383337
vt 0.080295 0.419706
vt 0.116663 0.449553
vt 0.158156 0.471731
vt 0.203179 0.485389
vt 0.250000 0.490000
vt 0.031250 0.500000
vt 0.031250 1.000000
vt 0.000000 0.500000
vt 0.000000 1.000000
vt 0.750000 0.490000
vt 0.703179 0.485389
vt 0.658156 0.471731
vt 0.616663 0.449553
vt 0.580295 0.419706
vt 0.550447 0.383337
vt 0.528269 0.341844
vt 0.514612 0.296822
vt 0.510000 0.250000
vt 0.514611 0.203179
vt 0.528269 0.158156
vt 0.550447 0.116663
vt 0.580294 0.080294
vt 0.616663 0.050447
vt 0.658156 0.028269
vt 0.703178 0.014612
vt 0.750000 0.010000
vt 0.796822 0.014612
vt 0.841844 0.028269
vt 0.883337 0.050447
vt 0.919706 0.080294
vt 0.949553 0.116663
vt 0.971731 0.158156
vt 0.985388 0.203178
vt 0.990000 0.250000
vt 0.985388 0.296822
vt 0.971731 0.341844
vt 0.949553 0.383337
vt 0.919706 0.419706
vt 0.883337 0.449553
vt 0.841844 0.471731
vt 0.796822 0.485388
vn 0.4223 -0.0465 -0.9053
vn 0.5749 -0.1709 -0.8002
vn 0.6951 -0.2831 -0.6608
vn 0.7796 -0.3777 -0.4996
vn 0.8294 -0.4526 -0.3275
vn 0.8477 -0.5079 -0.1529
vn 0.8383 -0.5448 0.0194
vn 0.8042 -0.5644 0.1865
vn 0.7469 -0.5674 0.3466
vn 0.6673 -0.5539 0.4980
vn 0.5649 -0.5229 0.6383
vn 0.4394 -0.4732 0.7635
vn 0.2910 -0.4035 0.8675
vn 0.1223 -0.3134 0.9417
vn -0.0604 -0.2045 0.9770
vn -0.2464 -0.0818 0.9657
vn -0.4223 0.0465 0.9053
vn -0.5749 0.1709 0.8002
vn -0.6951 0.2831 0.6608
vn -0.7796 0.3777 0.4996
vn -0.8294 0.4526 0.3275
vn -0.8477 0.5079 0.1529
vn -0.8383 0.5448 -0.0194
vn -0.8042 0.5644 -0.1865
vn -0.7469 0.5674 -0.3466
vn -0.6673 0.5539 -0.4980
vn -0.5649 0.5229 -0.6383
vn -0.4394 0.4732 -0.7635
vn -0.2910 0.4035 -0.8675
vn -0.1223 0.3134 -0.9417
vn -0.5300 -0.8229 -0.2050
vn 0.0604 0.2045 -0.9770
vn 0.2464 0.0818 -0.9657
vn 0.5300 0.8228 0.2050
usemtl None
s off
f 65/131/35 67/132/35 68/133/35 66/134/35
f 67/132/36 69/135/36 70/136/36 68/133/36
f 69/135/37 71/137/37 72/138/37 70/136/37
f 71/137/38 73/139/38 74/140/38 72/138/38
f 73/139/39 75/141/39 76/142/39 74/140/39
f 75/141/40 77/143/40 78/144/40 76/142/40
f 77/143/41 79/145/41 80/146/41 78/144/41
f 79/145/42 81/147/42 82/148/42 80/146/42
f 81/147/43 83/149/43 84/150/43 82/148/43
f 83/149/44 85/151/44 86/152/44 84/150/44
f 85/151/45 87/153/45 88/154/45 86/152/45
f 87/153/46 89/155/46 90/156/46 88/154/46
f 89/155/47 91/157/47 92/158/47 90/156/47
f 91/157/48 93/159/48 94/160/48 92/158/48
f 93/159/49 95/161/49 96/162/49 94/160/49
f 95/161/50 97/163/50 98/164/50 96/162/50
f 97/163/51 99/165/51 100/166/51 98/164/51
f 99/165/52 101/167/52 102/168/52 100/166/52
f 101/167/53 103/169/53 104/170/53 102/168/53
f 103/169/54 105/171/54 106/172/54 104/170/54
f 105/171/55 107/173/55 108/174/55 106/172/55
f 107/173/56 109/175/56 110/176/56 108/174/56
f 109/175/57 111/177/57 112/178/57 110/176/57
f 111/177/58 113/179/58 114/180/58 112/178/58
f 113/179/59 115/181/59 116/182/59 114/180/59
f 115/181/60 117/183/60 118/184/60 116/182/60
f 117/183/61 119/185/61 120/186/61 118/184/61
f 119/185/62 121/187/62 122/188/62 120/186/62
f 121/187/63 123/189/63 124/190/63 122/188/63
f 123/189/64 125/191/64 126/192/64 124/190/64
f 68/193/65 70/194/65 72/195/65 74/196/65 76/197/65 78/198/65 80/199/65 82/200/65 84/201/65 86/202/65 88/203/65 90/204/65 92/205/65 94/206/65 96/207/65 98/208/65 100/209/65 102/210/65 104/211/65 106/212/65 108/213/65 110/214/65 112/215/65 114/216/65 116/217/65 118/218/65 120/219/65 122/220/65 124/221/65 126/222/65 128/223/65 66/224/65
f 125/191/66 127/225/66 128/226/66 126/192/66
f 127/225/67 65/227/67 66/228/67 128/226/67
f 65/229/68 127/230/68 125/231/68 123/232/68 121/233/68 119/234/68 117/235/68 115/236/68 113/237/68 111/238/68 109/239/68 107/240/68 105/241/68 103/242/68 101/243/68 99/244/68 97/245/68 95/246/68 93/247/68 91/248/68 89/249/68 87/250/68 85/251/68 83/252/68 81/253/68 79/254/68 77/255/68 75/256/68 73/257/68 71/258/68 69/259/68 67/260/68
